<?xml version="1.0" standalone="no"?><!DOCTYPE svg PUBLIC "-//W3C//DTD SVG 1.1//EN" "http://www.w3.org/Graphics/SVG/1.1/DTD/svg11.dtd"><svg t="1614916354570" class="icon" viewBox="0 0 3477 1024" version="1.1" xmlns="http://www.w3.org/2000/svg" p-id="6580" xmlns:xlink="http://www.w3.org/1999/xlink" width="679.1015625" height="200"><defs><style type="text/css"></style></defs><path d="M2114.83544281 615.29113906c87.49367063-2.43037969 119.0886075-63.18987375 119.0886075-116.65822781L2233.92405031 177.822785l12.15189844 0 12.15189844-48.60759469L1998.177215 129.21519031l12.15189844 48.60759469 174.98734218 0 0 315.94936688c0 46.177215-34.02531656 75.34177219-82.63291125 75.34177218L2114.83544281 615.29113906 2114.83544281 615.29113906z" fill="#ff6a00" p-id="6581"></path><path d="M2124.55696156 505.92405031c12.15189844-12.15189844 17.01265781-29.16455719 17.01265781-55.89873375L2141.56962031 221.56962031 2000.60759469 221.56962031l0 301.36708875 77.77215187 0C2097.822785 522.93670906 2114.83544281 518.07594969 2124.55696156 505.92405031zM2049.21519031 471.89873375L2049.21519031 270.177215l43.74683531 0L2092.96202563 445.16455719c0 19.44303844-7.29113906 26.7341775-24.30379782 26.7341775L2049.21519031 471.89873375z" fill="#ff6a00" p-id="6582"></path><path d="M1803.74683531 126.78480969L1803.74683531 615.29113906l48.60759469 0 0-21.87341812L1852.35443 330.93670906 1852.35443 177.822785l58.32911437 0-36.45569625 153.11392406 0 0 0 0c14.58227813 12.15189844 41.31645563 43.74683531 41.31645563 97.21519032 0 53.46835406-31.59493687 72.9113925-41.31645563 77.77215187l0 51.03797437c26.7341775-2.43037969 92.35443-38.88607594 92.35443-126.37974656 0-53.46835406-19.44303844-89.92405031-36.45569625-114.22784812l43.74683532-189.56962032L1803.74683531 126.78480969z" fill="#ff6a00" p-id="6583"></path><path d="M2350.58227813 566.68354437L2340.86075938 615.29113906l432.60759468 0-12.15189843-48.60759468-179.84810157 0 0-60.75949407 165.2658225 0-12.15189843-48.60759468-155.54430375 0L2579.03797437 396.55696156l111.79746844 0c53.46835406 0 80.20253156-26.7341775 80.20253156-80.20253156L2771.03797437 126.78480969 2340.86075938 126.78480969 2340.86075938 396.55696156l189.56962031 0 0 58.32911438-155.54430375 0-12.15189844 48.60759469 165.2658225 0L2528 566.68354437 2350.58227813 566.68354437zM2581.46835406 287.18987375l114.22784813 0-12.15189844-48.60759469-102.07594969 0L2581.46835406 177.822785l140.96202563 0 0 136.10126625c0 24.30379781-9.72151875 34.02531656-29.16455719 34.02531656l-111.79746844 0L2581.46835406 287.18987375zM2391.89873375 347.94936687L2391.89873375 177.822785l140.96202563 0 0 60.75949406-102.07594969 0-12.15189844 48.60759469 114.22784813 0L2532.86075937 347.94936687 2391.89873375 347.94936687z" fill="#ff6a00" p-id="6584"></path><path d="M3242.53164594 126.78480969L2902.27848125 126.78480969 2890.12658187 177.822785 3254.68354438 177.822785Z" fill="#ff6a00" p-id="6585"></path><path d="M2882.83544281 610.43037969l-2.43037969 4.86075937 332.96202563 0c19.44303844 0 34.02531656-4.86075937 43.74683531-17.01265781 9.72151875-14.58227813 7.29113906-31.59493687 2.43037969-41.31645562l0 0c-4.86075937-24.30379781-24.30379781-109.36708875-29.16455719-121.51898719l0-2.43037969-51.03797437 0 2.43037968 4.86075938c2.43037969 12.15189844 24.30379781 99.64557 29.16455719 128.81012625l-267.34177219 0c12.15189844-55.89873375 34.02531656-153.11392406 46.177215-199.29113907L3288.70886094 367.39240531l-12.15189844-48.60759468-408.30379781 0-12.15189844 48.60759468 82.63291125 0C2929.01265781 411.13924062 2899.84810156 532.65822781 2882.83544281 610.43037969z" fill="#ff6a00" p-id="6586"></path><path d="M1947.13924062 902.07594969c-4.86075937 0-7.29113906 0-7.29113906-2.43037969 0-2.43037969-2.43037969-4.86075937-2.43037969-7.29113906l0-97.21519032c0-14.58227813-4.86075937-26.7341775-17.01265781-34.02531656-12.15189844-7.29113906-29.16455719-12.15189844-48.60759469-12.15189844-17.01265781 0-31.59493687 4.86075937-43.74683531 12.15189844-12.15189844 7.29113906-19.44303844 21.87341813-19.44303844 43.74683531l26.7341775 0c0-9.72151875 2.43037969-14.58227813 7.29113907-19.44303843 7.29113906-7.29113906 17.01265781-12.15189844 31.59493687-12.15189844 12.15189844 0 21.87341813 2.43037969 29.16455719 7.29113906 7.29113906 4.86075937 9.72151875 12.15189844 9.72151875 21.87341813 0 4.86075937 0 7.29113906-2.43037969 9.72151875-2.43037969 4.86075937-7.29113906 7.29113906-12.15189844 7.29113906l-43.74683531 4.86075937c-14.58227813 2.43037969-29.16455719 7.29113906-38.88607594 14.58227813-9.72151875 7.29113906-14.58227813 19.44303844-14.58227812 36.45569625 0 14.58227813 4.86075937 26.7341775 14.58227812 34.02531656 9.72151875 9.72151875 21.87341813 14.58227813 38.88607594 14.58227813 12.15189844 0 24.30379781-2.43037969 36.45569625-7.29113907 9.72151875-4.86075937 19.44303844-12.15189844 24.30379781-19.44303843 0 7.29113906 2.43037969 12.15189844 4.86075938 14.58227812 4.86075937 7.29113906 12.15189844 9.72151875 21.87341812 9.72151875 4.86075937 0 7.29113906 0 9.72151875 0 2.43037969 0 4.86075937 0 9.72151875-2.43037969l0-21.87341812c-2.43037969 0-2.43037969 0-4.86075937 0C1949.56962031 902.07594969 1949.56962031 902.07594969 1947.13924062 902.07594969zM1910.68354438 858.32911438c0 17.01265781-7.29113906 29.16455719-24.30379782 36.45569624-9.72151875 4.86075937-19.44303844 7.29113906-29.16455718 7.29113907-7.29113906 0-14.58227813-2.43037969-21.87341813-7.29113907-4.86075937-4.86075937-9.72151875-12.15189844-9.72151875-19.44303843 0-9.72151875 4.86075937-19.44303844 12.15189844-24.30379781 4.86075937-2.43037969 12.15189844-4.86075937 21.87341812-7.29113907l17.01265782-2.43037969c4.86075937 0 9.72151875-2.43037969 17.01265781-2.43037968 4.86075937-2.43037969 9.72151875-2.43037969 12.15189844-4.86075938L1905.822785 858.32911438z" fill="#ff6a00" p-id="6587"></path><path d="M1986.02531656 690.63291125l29.16455719 0 0 228.45569625-29.16455719 0 0-228.45569625Z" fill="#ff6a00" p-id="6588"></path><path d="M2054.07594969 753.822785l29.16455719 0 0 165.2658225-29.16455719 0 0-165.2658225Z" fill="#ff6a00" p-id="6589"></path><path d="M2054.07594969 690.63291125l29.16455719 0 0 31.59493687-29.16455719 0 0-31.59493687Z" fill="#ff6a00" p-id="6590"></path><path d="M2185.31645562 889.92405031l-43.74683531-136.10126625-31.59493687 0 60.75949406 172.55696157c-2.43037969 2.43037969-4.86075937 9.72151875-7.29113906 17.01265781-2.43037969 7.29113906-4.86075937 12.15189844-4.86075938 12.15189844-2.43037969 2.43037969-4.86075937 4.86075937-7.29113906 7.29113906-2.43037969 2.43037969-7.29113906 2.43037969-12.15189844 2.43037969-2.43037969 0-2.43037969 0-4.86075937 0-2.43037969 0-4.86075937 0-9.72151875-2.43037969l0 26.7341775c2.43037969 0 4.86075937 2.43037969 7.29113906 2.43037969 2.43037969 0 4.86075937 0 9.72151875 0 17.01265781 0 26.7341775-4.86075937 34.02531656-14.58227813 7.29113906-9.72151875 17.01265781-34.02531656 34.02531656-77.77215187 7.29113906-17.01265781 14.58227813-41.31645563 24.30379782-70.48101282 14.58227813-38.88607594 21.87341813-63.18987375 26.7341775-72.9113925l-31.59493688 0L2185.31645562 889.92405031z" fill="#ff6a00" p-id="6591"></path><path d="M2389.46835406 834.02531656c0 17.01265781-2.43037969 29.16455719-4.86075937 38.88607594-7.29113906 17.01265781-19.44303844 26.7341775-38.88607594 26.7341775-12.15189844 0-21.87341813-4.86075937-26.7341775-14.58227813-2.43037969-4.86075937-4.86075937-12.15189844-4.86075938-21.87341812l0-111.79746844-29.16455718 0 0 114.22784813c0 14.58227813 2.43037969 26.7341775 7.29113906 34.02531656 7.29113906 17.01265781 24.30379781 24.30379781 48.60759469 24.30379781 14.58227813 0 26.7341775-4.86075937 38.88607593-12.15189844 4.86075937-4.86075937 9.72151875-9.72151875 12.15189844-17.01265781l0 24.30379781 26.7341775 1e-8 0-167.69620219L2389.46835406 751.39240531 2389.46835406 834.02531656z" fill="#ff6a00" p-id="6592"></path><path d="M2542.58227812 748.96202562c-9.72151875 0-19.44303844 2.43037969-29.16455718 7.29113907-9.72151875 4.86075937-17.01265781 12.15189844-24.30379782 21.87341812l0-24.30379781L2462.37974656 753.822785l0 167.69620219 29.16455719 0 0-87.49367063c0-9.72151875 0-19.44303844 2.43037969-24.30379781 2.43037969-4.86075937 4.86075937-12.15189844 9.72151875-17.01265781 4.86075937-7.29113906 12.15189844-12.15189844 19.44303844-14.58227813 4.86075937-2.43037969 9.72151875-2.43037969 17.01265781-2.43037969 12.15189844 0 21.87341813 4.86075937 26.7341775 14.58227813 2.43037969 7.29113906 4.86075937 14.58227813 4.86075937 24.30379781l0 104.50632938 29.16455719 0 0-106.93670907c0-17.01265781-2.43037969-29.16455719-7.29113906-38.88607593C2583.89873375 758.68354438 2566.88607594 748.96202562 2542.58227812 748.96202562z" fill="#ff6a00" p-id="6593"></path><path d="M2647.0886075 885.06329094l31.59493687 0 0 34.02531656-31.59493687 0 0-34.02531656Z" fill="#ff6a00" p-id="6594"></path><path d="M2792.9113925 773.2658225c12.15189844 0 21.87341813 2.43037969 29.16455719 9.72151875 4.86075937 7.29113906 9.72151875 14.58227813 12.15189843 26.7341775l26.7341775 0c-2.43037969-21.87341813-9.72151875-38.88607594-21.87341812-46.177215-12.15189844-9.72151875-26.7341775-14.58227813-46.177215-14.58227813-21.87341813 0-41.31645563 7.29113906-53.46835406 24.30379782-14.58227813 17.01265781-21.87341813 38.88607594-21.87341813 68.05063312 0 24.30379781 7.29113906 43.74683531 19.44303844 60.75949406 12.15189844 17.01265781 29.16455719 24.30379781 51.03797437 24.30379782 19.44303844 0 36.45569625-4.86075937 48.60759469-14.58227813 12.15189844-9.72151875 19.44303844-26.7341775 24.30379781-48.60759469l-26.7341775 0c-2.43037969 12.15189844-7.29113906 21.87341813-14.58227812 29.16455719-7.29113906 7.29113906-17.01265781 9.72151875-26.7341775 9.72151875-14.58227813 0-26.7341775-4.86075937-34.02531656-17.01265781-7.29113906-12.15189844-9.72151875-24.30379781-9.72151875-41.31645563 0-17.01265781 2.43037969-31.59493687 7.29113906-41.31645562C2761.31645562 782.98734219 2773.46835406 773.2658225 2792.9113925 773.2658225z" fill="#ff6a00" p-id="6595"></path><path d="M2953.31645562 748.96202562c-24.30379781 0-43.74683531 7.29113906-55.89873375 24.30379782-14.58227813 17.01265781-21.87341813 38.88607594-21.87341812 68.05063312 0 26.7341775 7.29113906 46.177215 19.44303844 63.18987375 14.58227813 14.58227813 31.59493687 24.30379781 53.46835406 24.30379781 26.7341775 0 48.60759469-9.72151875 60.75949406-26.7341775 12.15189844-17.01265781 19.44303844-38.88607594 19.44303844-65.62025343 0-26.7341775-7.29113906-48.60759469-21.87341813-63.18987375C2994.63291125 756.25316469 2975.18987375 748.96202562 2953.31645562 748.96202562zM2989.77215188 880.20253156c-7.29113906 14.58227813-19.44303844 21.87341813-38.88607594 21.87341813-17.01265781 0-29.16455719-4.86075937-36.45569625-17.01265782-7.29113906-12.15189844-12.15189844-26.7341775-12.15189844-43.74683531 0-19.44303844 4.86075937-34.02531656 12.15189844-46.177215 7.29113906-12.15189844 19.44303844-19.44303844 36.45569625-19.44303844 19.44303844 0 31.59493687 7.29113906 41.31645562 21.87341813 4.86075937 9.72151875 7.29113906 21.87341813 7.29113907 38.88607594C3001.92405031 851.03797438 2997.06329094 865.62025344 2989.77215188 880.20253156z" fill="#ff6a00" p-id="6596"></path><path d="M3281.41772188 773.2658225c-7.29113906-17.01265781-24.30379781-24.30379781-46.177215-24.30379781-9.72151875 0-19.44303844 2.43037969-29.16455719 7.29113906-7.29113906 4.86075937-14.58227813 12.15189844-21.87341813 19.44303844-4.86075937-7.29113906-7.29113906-12.15189844-12.15189843-17.01265781-7.29113906-7.29113906-19.44303844-9.72151875-31.59493688-9.72151875-12.15189844 0-21.87341813 2.43037969-31.59493687 9.72151875-4.86075937 4.86075937-12.15189844 9.72151875-17.01265782 17.01265781l0-24.30379781-26.7341775 0 0 167.69620218 29.16455719 0 0-87.49367062c0-21.87341813 4.86075937-36.45569625 12.15189844-43.74683532 9.72151875-7.29113906 19.44303844-12.15189844 29.16455719-12.15189843 12.15189844 0 19.44303844 4.86075937 24.30379781 12.15189843 2.43037969 4.86075937 4.86075937 14.58227813 4.86075937 24.30379782l0 109.36708875 29.16455719 0 0-97.21519032c0-17.01265781 4.86075937-29.16455719 12.15189844-36.45569625 7.29113906-7.29113906 17.01265781-12.15189844 29.16455719-12.15189843 7.29113906 0 14.58227813 2.43037969 19.44303843 7.29113906 4.86075937 4.86075937 7.29113906 12.15189844 7.29113907 21.87341812l0 116.65822782 29.16455718 0L3291.13924063 809.72151875C3288.70886094 795.13924063 3286.27848125 782.98734219 3281.41772188 773.2658225z" fill="#ff6a00" p-id="6597"></path><path d="M309.06329094 765.97468344c-31.59493687-7.29113906-55.89873375-34.02531656-55.89873375-68.05063313 0 0 0-371.84810156 0-374.27848125 2.43037969-34.02531656 24.30379781-60.75949406 55.89873375-68.05063312l347.54430375-75.34177219L693.06329094 32 289.62025344 32C146.22784812 32 32 146.22784812 32 287.18987375l0 442.32911438c0 140.96202563 116.65822781 257.62025344 257.62025344 257.62025343l403.44303844 0-36.45569625-148.25316468L309.06329094 765.97468344z" fill="#ff6a00" p-id="6598"></path><path d="M1320.10126625 32L914.22784813 32l36.45569625 148.25316469 347.54430375 75.34177218c31.59493687 7.29113906 55.89873375 34.02531656 55.89873375 68.05063313 0 0 0 371.84810156 0 374.27848125-2.43037969 34.02531656-24.30379781 60.75949406-55.89873375 68.05063313l-347.54430375 75.34177218-36.45569625 148.25316469L1320.10126625 989.56962031c140.96202563 0 257.62025344-114.22784813 257.62025344-257.62025343L1577.72151875 287.18987375C1575.29113906 146.22784812 1461.06329094 32 1320.10126625 32z" fill="#ff6a00" p-id="6599"></path><path d="M656.60759469 491.34177219l296.50632937 0 0 36.45569625-296.50632937 0 0-36.45569625Z" fill="#ff6a00" p-id="6600"></path></svg>